<svg width="25" height="24" viewBox="0 0 25 24" fill="none" xmlns="http://www.w3.org/2000/svg">
<g clip-path="url(#clip0_90_13673)">
<path d="M23.9444 11.2258H1.89039C1.4628 11.2258 1.11621 11.5725 1.11621 12V18.6008C1.11621 19.0284 1.46285 19.375 1.89039 19.375H23.9444L24.7185 18.9678V12C24.7185 11.5724 24.3719 11.2258 23.9444 11.2258Z" fill="#F2F2F6"/>
<path d="M1.49294 16.6452V11.6016L0.71875 12V18.9677C0.71875 19.3953 1.06539 19.7419 1.49294 19.7419H23.9445C24.3722 19.7419 24.7188 19.3953 24.7188 18.9677H3.81555C2.53281 18.9677 1.49294 17.9279 1.49294 16.6452Z" fill="#E1E1E6"/>
<path d="M23.9445 4.25806H1.49294L1.09375 5.03224V11.1562L1.49294 12H24.7188V5.03224C24.7188 4.60465 24.3722 4.25806 23.9445 4.25806Z" fill="#DB4655"/>
<path d="M0.71875 5.03224V12H1.49294V4.25806C1.06539 4.25806 0.71875 4.60465 0.71875 5.03224Z" fill="#BD4150"/>
</g>
<defs>
<clipPath id="clip0_90_13673">
<rect width="24" height="24" fill="white" transform="translate(0.71875)"/>
</clipPath>
</defs>
</svg>
