<svg width="243" height="281" viewBox="0 0 243 281" fill="none" xmlns="http://www.w3.org/2000/svg">
<path d="M242.896 259.468C242.896 247.993 188.523 238.691 121.448 238.691C54.3755 238.691 0 247.993 0 259.468C0 270.942 54.3735 280.244 121.448 280.244C188.523 280.244 242.896 270.942 242.896 259.468Z" fill="#FFD1D1" fill-opacity="0.560784"/>
<path d="M218.38 178.733C218.38 163.132 207.364 147.5 193.773 147.5C180.182 147.5 169.164 163.134 169.164 178.733C169.164 194.334 180.182 206.98 193.773 206.98C207.364 206.98 218.38 194.334 218.38 178.733Z" fill="#EF6767"/>
<path d="M193.773 147.5C191.584 147.5 189.476 147.943 187.456 148.687C197.98 152.569 205.748 165.644 205.748 178.733C205.748 191.822 197.98 202.801 187.456 206.006C189.476 206.62 191.584 206.98 193.773 206.98C207.364 206.98 218.38 194.334 218.38 178.733C218.38 163.132 207.364 147.5 193.773 147.5V147.5Z" fill="#8C3434" fill-opacity="0.25098"/>
<path d="M74.6456 178.733C74.6456 163.132 63.6276 147.5 50.0367 147.5C36.4457 147.5 25.4277 163.134 25.4277 178.733C25.4277 194.334 36.4457 206.98 50.0367 206.98C63.6276 206.98 74.6456 194.334 74.6456 178.733Z" fill="#EF6767"/>
<path d="M50.0368 147.5C47.8498 147.5 45.7395 147.943 43.7197 148.687C54.2436 152.569 62.0116 165.644 62.0116 178.733C62.0116 191.822 54.2436 202.801 43.7197 206.006C45.7395 206.62 47.8498 206.98 50.0368 206.98C63.6277 206.98 74.6458 194.334 74.6458 178.733C74.6458 163.132 63.6277 147.5 50.0368 147.5V147.5Z" fill="#8C3434" fill-opacity="0.25098"/>
<path d="M27.9043 205.637L33.2627 238.798C34.0226 243.501 38.0817 246.955 42.8456 246.955H59.1709C63.9328 246.955 67.994 243.499 68.7519 238.798L74.1103 205.637H27.9043V205.637Z" fill="#FFD1D1"/>
<path d="M74.1103 205.637H65.0096H27.9043L28.6464 210.232H64.2675L59.6512 238.798C58.8914 243.501 54.8322 246.955 50.0683 246.955H59.1689C63.9309 246.955 67.992 243.501 68.7499 238.798L73.3662 210.232L74.1083 205.637H74.1103Z" fill="#E4ACAC"/>
<path d="M74.6259 196.098H27.3884C24.7329 196.098 22.5596 198.271 22.5596 200.927C22.5596 203.582 24.7329 205.756 27.3884 205.756H74.6259C77.2815 205.756 79.4548 203.582 79.4548 200.927C79.4548 198.271 77.2815 196.098 74.6259 196.098V196.098Z" fill="#FFD1D1"/>
<path d="M169.591 205.637L174.949 238.798C175.709 243.501 179.768 246.955 184.532 246.955H200.857C205.621 246.955 209.68 243.499 210.44 238.798L215.799 205.637H169.593H169.591Z" fill="#FFD1D1"/>
<path d="M215.799 205.637H206.698H169.593L170.335 210.232H205.956L201.34 238.798C200.58 243.501 196.521 246.955 191.757 246.955H200.857C205.621 246.955 209.68 243.501 210.44 238.798L215.057 210.232L215.799 205.637V205.637Z" fill="#E4ACAC"/>
<path d="M216.312 196.098H169.075C166.419 196.098 164.246 198.271 164.246 200.927C164.246 203.582 166.419 205.756 169.075 205.756H216.312C218.968 205.756 221.141 203.582 221.141 200.927C221.141 198.271 218.968 196.098 216.312 196.098V196.098Z" fill="#FFD1D1"/>
<path d="M179.304 140.244H209.055C212.944 140.244 216.179 137.165 216.273 133.275C216.275 133.185 216.277 133.096 216.277 133.006C216.281 127 211.458 122.039 205.454 121.883C204.413 121.856 203.403 121.974 202.442 122.214C201.501 117.962 197.71 114.783 193.174 114.783C188.446 114.783 184.524 118.241 183.802 122.767C182.881 122.515 181.904 122.397 180.892 122.438C175.739 122.651 171.735 126.885 171.798 132.041C171.819 133.75 172.292 135.348 173.101 136.726C174.39 138.917 176.76 140.244 179.302 140.244H179.304Z" fill="#930707"/>
<path d="M168.597 33.9812L62.0391 33.7588C53.7535 33.741 46.9619 40.505 46.9442 48.7907L46.5899 230.498C46.5722 238.782 53.3361 245.575 61.6218 245.591L168.18 245.814C176.463 245.831 183.257 239.067 183.275 230.782L183.629 49.0741C183.647 40.7904 176.883 33.997 168.597 33.9812V33.9812Z" fill="#E7524A"/>
<path d="M167.639 46.4323L155.949 46.4087C154.963 46.4067 154.04 46.9008 153.495 47.7237L150.735 51.8832C147.876 56.1924 143.043 58.7791 137.872 58.7693L92.6582 58.6748C87.4868 58.6649 82.6658 56.0566 79.8252 51.7356L77.083 47.5642C76.5417 46.7394 75.6204 46.2414 74.6322 46.2394L62.9429 46.2158C61.3208 46.2118 60.0018 47.5249 59.9979 49.1469L59.6436 230.197C59.6396 231.819 60.9527 233.138 62.5767 233.142L167.269 233.361C168.891 233.365 170.21 232.052 170.213 230.429L170.566 49.3792C170.57 47.7571 169.257 46.4382 167.633 46.4343L167.639 46.4323Z" fill="#FFD1D1"/>
<path d="M155.178 197.698L71.4273 197.523C69.0551 197.517 67.1102 199.454 67.1043 201.828L67.0059 249.278C67 251.651 68.937 253.597 71.3111 253.601L155.059 253.777C157.432 253.782 159.376 251.845 159.382 249.471L159.481 202.021C159.485 199.649 157.548 197.702 155.176 197.698H155.178Z" fill="#930707"/>
<path d="M148.801 246.068L79.2382 246.028C78.7048 246.028 78.2678 246.463 78.2678 246.995L78.2461 247.081C78.2441 247.615 78.6792 248.05 79.2127 248.052L148.776 248.091C149.309 248.093 149.746 247.658 149.746 247.125L149.768 247.038C149.768 246.505 149.335 246.07 148.801 246.068Z" fill="#FF4848"/>
<path d="M148.801 246.068L99.5674 246.04V248.064L148.775 248.091C149.309 248.093 149.746 247.658 149.746 247.125L149.768 247.038C149.768 246.505 149.334 246.07 148.801 246.068V246.068Z" fill="#E7524A"/>
<path d="M101.566 247.07C101.566 245.828 100.56 244.822 99.3174 244.822C98.0753 244.822 97.0693 245.828 97.0693 247.07C97.0693 248.312 98.0753 249.318 99.3174 249.318C100.56 249.318 101.566 248.312 101.566 247.07Z" fill="white"/>
<path d="M126.923 221.315C126.923 213.959 120.814 207.996 113.279 207.996C105.743 207.996 99.6348 213.959 99.6348 221.315C99.6348 228.672 105.743 234.634 113.279 234.634C120.814 234.634 126.923 228.672 126.923 221.315Z" fill="white"/>
<path d="M111.084 216.959L117.602 220.175C118.812 220.774 118.812 222.5 117.602 223.097L111.084 226.313C110.001 226.847 108.733 226.059 108.733 224.853V218.419C108.733 217.213 110.001 216.425 111.084 216.959V216.959Z" fill="#930707"/>
<path d="M215.354 60.2496L136.95 60.0862C134.73 60.0823 132.909 61.8954 132.905 64.1159L132.813 108.538C132.809 110.759 134.622 112.58 136.842 112.586L215.246 112.749C217.466 112.753 219.287 110.94 219.291 108.719L219.384 64.297C219.388 62.0765 217.575 60.2555 215.354 60.2496Z" fill="#FF4848"/>
<path d="M196.306 72.6949H155.886C154.378 72.6949 153.146 73.9272 153.146 75.4351C153.146 76.9411 154.378 78.1753 155.886 78.1753H196.306C197.812 78.1753 199.046 76.943 199.046 75.4351C199.046 73.9272 197.812 72.6949 196.306 72.6949Z" fill="#930707"/>
<path d="M186.715 85.3685H165.477C163.971 85.3685 162.736 86.6028 162.736 88.1087C162.736 89.6166 163.969 90.8489 165.477 90.8489H186.715C188.223 90.8489 189.456 89.6166 189.456 88.1087C189.456 86.6028 188.223 85.3685 186.715 85.3685Z" fill="#930707"/>
<path d="M193.338 97.8668H158.854C157.347 97.8668 156.114 99.1011 156.114 100.607C156.114 102.115 157.347 103.347 158.854 103.347H193.338C194.846 103.347 196.078 102.115 196.078 100.607C196.078 99.1011 194.846 97.8668 193.338 97.8668V97.8668Z" fill="#930707"/>
<path d="M20.8394 90.3568H59.1219C64.128 90.3568 68.2895 86.394 68.4115 81.39C68.4135 81.2738 68.4155 81.1577 68.4155 81.0435C68.4194 73.315 62.2126 66.9329 54.4879 66.7321C53.1473 66.6967 51.8481 66.8463 50.6118 67.1573C49.4012 61.6867 44.5231 57.5941 38.6863 57.5941C32.6015 57.5941 27.5561 62.045 26.6269 67.868C25.4419 67.5431 24.184 67.3916 22.8827 67.4447C16.2526 67.7164 11.099 73.1673 11.1816 79.8014C11.2092 82.0002 11.8155 84.0574 12.8589 85.8291C14.5164 88.648 17.5676 90.3568 20.8374 90.3568H20.8394Z" fill="#EF6767"/>
<path d="M125.766 25.4613H155.516C159.406 25.4613 162.641 22.3825 162.735 18.4926C162.737 18.4021 162.739 18.3135 162.739 18.2229C162.743 12.2169 157.918 7.25807 151.916 7.10059C150.875 7.07303 149.865 7.19114 148.904 7.4313C147.963 3.17922 144.172 0 139.638 0C134.908 0 130.988 3.45876 130.266 7.98447C129.344 7.73249 128.366 7.61438 127.356 7.65572C122.204 7.86832 118.198 12.1027 118.261 17.2583C118.283 18.967 118.756 20.5655 119.565 21.9435C120.854 24.1345 123.224 25.4613 125.766 25.4613V25.4613Z" fill="#FF4848"/>
<path d="M103.936 106.871L9.49027 106.674C6.815 106.668 4.62006 108.853 4.61613 111.529L4.50392 165.04C4.49801 167.715 6.68311 169.908 9.35838 169.914L103.804 170.111C106.479 170.117 108.674 167.932 108.678 165.256L108.79 111.745C108.796 109.07 106.611 106.877 103.936 106.871V106.871Z" fill="#FFAA44"/>
<path d="M98.6129 127.537H55.7633C54.7613 127.537 53.9424 128.356 53.9424 129.358C53.9424 130.36 54.7613 131.179 55.7633 131.179H98.6129C99.6149 131.179 100.434 130.36 100.434 129.358C100.434 128.356 99.6149 127.537 98.6129 127.537V127.537Z" fill="white"/>
<path d="M88.963 136.519H55.7633C54.7613 136.519 53.9424 137.338 53.9424 138.34C53.9424 139.34 54.7613 140.161 55.7633 140.161H88.963C89.965 140.161 90.7839 139.342 90.7839 138.34C90.7839 137.338 89.965 136.519 88.963 136.519V136.519Z" fill="white"/>
<path d="M84.4117 145.077H55.7653C54.7633 145.077 53.9443 145.896 53.9443 146.898C53.9443 147.9 54.7633 148.719 55.7653 148.719H84.4117C85.4137 148.719 86.2326 147.9 86.2326 146.898C86.2326 145.896 85.4137 145.077 84.4117 145.077V145.077Z" fill="white"/>
<path d="M36.1721 129.055C36.1721 132.978 33.0973 136.159 29.3038 136.159C25.5104 136.159 22.4355 132.978 22.4355 129.055C22.4355 125.131 25.5104 121.95 29.3038 121.95C33.0973 121.95 36.1721 125.131 36.1721 129.055Z" fill="white"/>
<path d="M38.0478 141.277L33.906 139.931C30.9236 138.96 27.709 138.96 24.7247 139.927L20.5552 141.279C17.9883 142.112 16.248 144.502 16.248 147.203V153.9H26.6223H31.9768H42.3511V147.203C42.3511 144.504 40.6129 142.112 38.0439 141.281L38.0478 141.277Z" fill="white"/>
</svg>
