<svg width="21" height="22" viewBox="0 0 21 22" fill="none" xmlns="http://www.w3.org/2000/svg">
<g clip-path="url(#clip0_622_3318)">
<path fill-rule="evenodd" clip-rule="evenodd" d="M1.06346 6.27017L9.42062 1.16302C9.7763 0.94566 10.2237 0.94566 10.5794 1.16302L18.9366 6.27017C19.5971 6.67385 20 7.39221 20 8.16635V18.0312C20 19.2585 19.0051 20.2534 17.7778 20.2534L2.22222 20.2534C0.994922 20.2534 0 19.2585 0 18.0312L1.85889e-05 8.16635C1.97778e-05 7.3922 0.402898 6.67385 1.06346 6.27017ZM7.7778 11.3645C7.16415 11.3645 6.66669 11.862 6.66669 12.4756V15.8089C6.66669 16.4226 7.16415 16.92 7.7778 16.92H12.2222C12.8359 16.92 13.3334 16.4226 13.3334 15.8089V12.4756C13.3334 11.862 12.8359 11.3645 12.2222 11.3645H7.7778Z" fill="#E7524A"/>
</g>
<defs>
<clipPath id="clip0_622_3318">
<rect width="20" height="21" fill="white" transform="translate(0.125 0.5)"/>
</clipPath>
</defs>
</svg>
