<svg width="21" height="20" viewBox="0 0 21 20" fill="none" xmlns="http://www.w3.org/2000/svg">
<g clip-path="url(#clip0_622_3325)">
<path fill-rule="evenodd" clip-rule="evenodd" d="M2 2.6C2 2.03995 2 1.75992 2.10899 1.54601C2.20487 1.35785 2.35785 1.20487 2.54601 1.10899C2.75992 1 3.03995 1 3.6 1H17.4C17.9601 1 18.2401 1 18.454 1.10899C18.6422 1.20487 18.7951 1.35785 18.891 1.54601C19 1.75992 19 2.03995 19 2.6V18.8413C19 19.4014 19 19.6814 18.891 19.8953C18.8436 19.9884 18.7822 20.0728 18.7095 20.146L16.875 18.2812L15.2812 19.9013L13.6875 18.2812L12.0938 19.9013L10.5 18.2812L8.90625 19.9013L7.3125 18.2812L5.71875 19.9013L4.125 18.2812L2.29049 20.146C2.21779 20.0728 2.15641 19.9884 2.10899 19.8953C2 19.6814 2 19.4014 2 18.8413V2.6ZM4.1795 3.43315C4.125 3.54011 4.125 3.68012 4.125 3.96015V4.5203C4.125 4.80032 4.125 4.94034 4.1795 5.04729C4.22743 5.14137 4.30392 5.21786 4.398 5.2658C4.50496 5.3203 4.64497 5.3203 4.925 5.3203H16.075C16.355 5.3203 16.495 5.3203 16.602 5.2658C16.6961 5.21786 16.7726 5.14137 16.8205 5.04729C16.875 4.94034 16.875 4.80032 16.875 4.5203V3.96015C16.875 3.68012 16.875 3.54011 16.8205 3.43315C16.7726 3.33907 16.6961 3.26258 16.602 3.21465C16.495 3.16015 16.355 3.16015 16.075 3.16015H4.925C4.64497 3.16015 4.50496 3.16015 4.398 3.21465C4.30392 3.26258 4.22743 3.33907 4.1795 3.43315Z" fill="#7B7B7B"/>
</g>
<defs>
<clipPath id="clip0_622_3325">
<rect width="20" height="20" fill="white" transform="translate(0.693115)"/>
</clipPath>
</defs>
</svg>
