<svg width="47" height="48" viewBox="0 0 47 48" fill="none" xmlns="http://www.w3.org/2000/svg">
<g clip-path="url(#clip0_90_13719)">
<path fill-rule="evenodd" clip-rule="evenodd" d="M35.8449 11.4977C32.5473 8.19601 28.1614 6.37694 23.489 6.375C13.8611 6.375 6.02538 14.2105 6.02152 23.841C6.02023 26.9195 6.82446 29.9247 8.35309 32.5738L5.875 41.625L15.1348 39.1959C17.6862 40.5877 20.5588 41.3213 23.482 41.322H23.4892C33.116 41.322 40.9527 33.486 40.9564 23.8551C40.9583 19.1876 39.143 14.7992 35.8449 11.4977ZM23.489 38.3722H23.483C20.878 38.371 18.3231 37.6709 16.0937 36.3485L15.5638 36.0338L10.0689 37.4753L11.5356 32.1179L11.1902 31.5686C9.73693 29.257 8.96948 26.5852 8.97077 23.8422C8.97379 15.8375 15.4868 9.32513 23.4949 9.32513C27.3726 9.3264 31.018 10.8385 33.7589 13.5827C36.5 16.3269 38.0085 19.9746 38.0073 23.8539C38.0038 31.8592 31.4914 38.3722 23.489 38.3722ZM31.4526 27.4988C31.0163 27.2802 28.8703 26.2247 28.4703 26.0788C28.0704 25.9331 27.7792 25.8606 27.4883 26.2973C27.1973 26.734 26.3611 27.7173 26.1063 28.0085C25.8516 28.2997 25.5972 28.3363 25.1607 28.1178C24.7242 27.8994 23.3181 27.4382 21.6507 25.9515C20.3534 24.7941 19.4776 23.3649 19.2228 22.9282C18.9685 22.4909 19.2207 22.2775 19.4143 22.0374C19.8869 21.4506 20.3598 20.8355 20.5053 20.5445C20.651 20.2531 20.578 19.9982 20.4687 19.7799C20.3598 19.5615 19.487 17.4132 19.1234 16.5391C18.7689 15.6884 18.4094 15.8033 18.1413 15.7899C17.887 15.7772 17.5959 15.7746 17.3048 15.7746C17.0139 15.7746 16.541 15.8837 16.1408 16.3209C15.7409 16.7579 14.6135 17.8136 14.6135 19.9619C14.6135 22.1102 16.1774 24.1855 16.3956 24.4769C16.6137 24.7681 19.4733 29.1765 23.8513 31.0668C24.8926 31.5169 25.7055 31.7852 26.3396 31.9863C27.3851 32.3186 28.3363 32.2716 29.0885 32.1594C29.9271 32.0339 31.6706 31.1033 32.0346 30.084C32.3981 29.0644 32.3981 28.1906 32.2888 28.0085C32.1799 27.8264 31.8889 27.7173 31.4526 27.4988Z" fill="#E7524A"/>
</g>
<defs>
<clipPath id="clip0_90_13719">
<rect width="47" height="48" fill="white"/>
</clipPath>
</defs>
</svg>
